<svg width="91" height="80" viewBox="0 0 91 80" fill="none" xmlns="http://www.w3.org/2000/svg">
<g clip-path="url(#clip0_4_1580)">
<path d="M51.2218 31.2682L48.6818 30.9782C48.0718 30.9082 47.4718 31.1182 47.0418 31.5482L45.2018 33.3882C42.3718 31.9482 40.0518 29.6382 38.6118 26.7982L40.4618 24.9482C40.8918 24.5182 41.1018 23.9182 41.0318 23.3082L40.7418 20.7882C40.6218 19.7782 39.7718 19.0182 38.7518 19.0182H37.0218C35.8918 19.0182 34.9518 19.9582 35.0218 21.0882C35.5518 29.6282 42.3818 36.4482 50.9118 36.9782C52.0418 37.0482 52.9818 36.1082 52.9818 34.9782V33.2482C52.9918 32.2382 52.2318 31.3882 51.2218 31.2682Z" fill="#54656F"/>
</g>
<path d="M35.331 55.312C35.299 55.096 35.227 54.9 35.115 54.724C35.003 54.54 34.863 54.38 34.695 54.244C34.527 54.108 34.335 54.004 34.119 53.932C33.911 53.852 33.691 53.812 33.459 53.812C33.035 53.812 32.675 53.896 32.379 54.064C32.083 54.224 31.843 54.444 31.659 54.724C31.475 54.996 31.339 55.308 31.251 55.66C31.171 56.012 31.131 56.376 31.131 56.752C31.131 57.112 31.171 57.464 31.251 57.808C31.339 58.144 31.475 58.448 31.659 58.72C31.843 58.992 32.083 59.212 32.379 59.38C32.675 59.54 33.035 59.62 33.459 59.62C34.035 59.62 34.483 59.444 34.803 59.092C35.131 58.74 35.331 58.276 35.403 57.7H37.227C37.179 58.236 37.055 58.72 36.855 59.152C36.655 59.584 36.391 59.952 36.063 60.256C35.735 60.56 35.351 60.792 34.911 60.952C34.471 61.112 33.987 61.192 33.459 61.192C32.803 61.192 32.211 61.08 31.683 60.856C31.163 60.624 30.723 60.308 30.363 59.908C30.003 59.508 29.727 59.04 29.535 58.504C29.343 57.96 29.247 57.376 29.247 56.752C29.247 56.112 29.343 55.52 29.535 54.976C29.727 54.424 30.003 53.944 30.363 53.536C30.723 53.128 31.163 52.808 31.683 52.576C32.211 52.344 32.803 52.228 33.459 52.228C33.931 52.228 34.375 52.296 34.791 52.432C35.215 52.568 35.591 52.768 35.919 53.032C36.255 53.288 36.531 53.608 36.747 53.992C36.963 54.376 37.099 54.816 37.155 55.312H35.331ZM38.7615 56.704C38.7855 56.304 38.8855 55.972 39.0615 55.708C39.2375 55.444 39.4615 55.232 39.7335 55.072C40.0055 54.912 40.3095 54.8 40.6455 54.736C40.9895 54.664 41.3335 54.628 41.6775 54.628C41.9895 54.628 42.3055 54.652 42.6255 54.7C42.9455 54.74 43.2375 54.824 43.5015 54.952C43.7655 55.08 43.9815 55.26 44.1495 55.492C44.3175 55.716 44.4015 56.016 44.4015 56.392V59.62C44.4015 59.9 44.4175 60.168 44.4495 60.424C44.4815 60.68 44.5375 60.872 44.6175 61H42.8895C42.8575 60.904 42.8295 60.808 42.8055 60.712C42.7895 60.608 42.7775 60.504 42.7695 60.4C42.4975 60.68 42.1775 60.876 41.8095 60.988C41.4415 61.1 41.0655 61.156 40.6815 61.156C40.3855 61.156 40.1095 61.12 39.8535 61.048C39.5975 60.976 39.3735 60.864 39.1815 60.712C38.9895 60.56 38.8375 60.368 38.7255 60.136C38.6215 59.904 38.5695 59.628 38.5695 59.308C38.5695 58.956 38.6295 58.668 38.7495 58.444C38.8775 58.212 39.0375 58.028 39.2295 57.892C39.4295 57.756 39.6535 57.656 39.9015 57.592C40.1575 57.52 40.4135 57.464 40.6695 57.424C40.9255 57.384 41.1775 57.352 41.4255 57.328C41.6735 57.304 41.8935 57.268 42.0855 57.22C42.2775 57.172 42.4295 57.104 42.5415 57.016C42.6535 56.92 42.7055 56.784 42.6975 56.608C42.6975 56.424 42.6655 56.28 42.6015 56.176C42.5455 56.064 42.4655 55.98 42.3615 55.924C42.2655 55.86 42.1495 55.82 42.0135 55.804C41.8855 55.78 41.7455 55.768 41.5935 55.768C41.2575 55.768 40.9935 55.84 40.8015 55.984C40.6095 56.128 40.4975 56.368 40.4655 56.704H38.7615ZM42.6975 57.964C42.6255 58.028 42.5335 58.08 42.4215 58.12C42.3175 58.152 42.2015 58.18 42.0735 58.204C41.9535 58.228 41.8255 58.248 41.6895 58.264C41.5535 58.28 41.4175 58.3 41.2815 58.324C41.1535 58.348 41.0255 58.38 40.8975 58.42C40.7775 58.46 40.6695 58.516 40.5735 58.588C40.4855 58.652 40.4135 58.736 40.3575 58.84C40.3015 58.944 40.2735 59.076 40.2735 59.236C40.2735 59.388 40.3015 59.516 40.3575 59.62C40.4135 59.724 40.4895 59.808 40.5855 59.872C40.6815 59.928 40.7935 59.968 40.9215 59.992C41.0495 60.016 41.1815 60.028 41.3175 60.028C41.6535 60.028 41.9135 59.972 42.0975 59.86C42.2815 59.748 42.4175 59.616 42.5055 59.464C42.5935 59.304 42.6455 59.144 42.6615 58.984C42.6855 58.824 42.6975 58.696 42.6975 58.6V57.964ZM46.2722 52.432H47.9762V61H46.2722V52.432ZM49.8659 52.432H51.5699V61H49.8659V52.432ZM54.7317 58.984C54.7317 59.168 54.7677 59.328 54.8397 59.464C54.9197 59.592 55.0197 59.7 55.1397 59.788C55.2597 59.868 55.3957 59.928 55.5477 59.968C55.7077 60.008 55.8717 60.028 56.0397 60.028C56.1597 60.028 56.2837 60.016 56.4117 59.992C56.5477 59.96 56.6677 59.916 56.7717 59.86C56.8837 59.796 56.9757 59.716 57.0477 59.62C57.1197 59.516 57.1557 59.388 57.1557 59.236C57.1557 58.98 56.9837 58.788 56.6397 58.66C56.3037 58.532 55.8317 58.404 55.2237 58.276C54.9757 58.22 54.7317 58.156 54.4917 58.084C54.2597 58.004 54.0517 57.904 53.8677 57.784C53.6837 57.656 53.5357 57.5 53.4237 57.316C53.3117 57.124 53.2557 56.892 53.2557 56.62C53.2557 56.22 53.3317 55.892 53.4837 55.636C53.6437 55.38 53.8517 55.18 54.1077 55.036C54.3637 54.884 54.6517 54.78 54.9717 54.724C55.2917 54.66 55.6197 54.628 55.9557 54.628C56.2917 54.628 56.6157 54.66 56.9277 54.724C57.2477 54.788 57.5317 54.896 57.7797 55.048C58.0277 55.2 58.2317 55.404 58.3917 55.66C58.5597 55.908 58.6597 56.224 58.6917 56.608H57.0717C57.0477 56.28 56.9237 56.06 56.6997 55.948C56.4757 55.828 56.2117 55.768 55.9077 55.768C55.8117 55.768 55.7077 55.776 55.5957 55.792C55.4837 55.8 55.3797 55.824 55.2837 55.864C55.1957 55.904 55.1197 55.964 55.0557 56.044C54.9917 56.116 54.9597 56.216 54.9597 56.344C54.9597 56.496 55.0157 56.62 55.1277 56.716C55.2397 56.812 55.3837 56.892 55.5597 56.956C55.7437 57.012 55.9517 57.064 56.1837 57.112C56.4157 57.16 56.6517 57.212 56.8917 57.268C57.1397 57.324 57.3797 57.392 57.6117 57.472C57.8517 57.552 58.0637 57.66 58.2477 57.796C58.4317 57.924 58.5797 58.088 58.6917 58.288C58.8037 58.48 58.8597 58.72 58.8597 59.008C58.8597 59.416 58.7757 59.76 58.6077 60.04C58.4477 60.312 58.2357 60.532 57.9717 60.7C57.7077 60.868 57.4037 60.984 57.0597 61.048C56.7237 61.12 56.3797 61.156 56.0277 61.156C55.6677 61.156 55.3157 61.12 54.9717 61.048C54.6277 60.976 54.3197 60.856 54.0477 60.688C53.7837 60.52 53.5637 60.3 53.3877 60.028C53.2197 59.748 53.1277 59.4 53.1117 58.984H54.7317Z" fill="#54656F"/>
<defs>
<clipPath id="clip0_4_1580">
<rect x="12" y="12" width="64" height="32" rx="16" fill="white"/>
</clipPath>
</defs>
</svg>
