<svg width="91" height="80" viewBox="0 0 91 80" fill="none" xmlns="http://www.w3.org/2000/svg">
<rect x="12" y="12" width="64" height="32" rx="16" fill="#1D192B" fill-opacity="0.12"/>
<path d="M36.5214 30.3333C36.5214 30.7459 36.6965 31.1416 37.0081 31.4333C37.3198 31.725 37.7425 31.8889 38.1833 31.8889H48.1548L51.4786 35V22.5555C51.4786 22.143 51.3035 21.7473 50.9919 21.4556C50.6802 21.1639 50.2575 21 49.8167 21H38.1833C37.7425 21 37.3198 21.1639 37.0081 21.4556C36.6965 21.7473 36.5214 22.143 36.5214 22.5555V30.3333Z" fill="#54656F" stroke="#54656F" stroke-width="1.64706" stroke-linecap="round" stroke-linejoin="round"/>
<path d="M39.0142 24.4999H48.9857" stroke="#CBCBCB" stroke-width="1.64706" stroke-linecap="round"/>
<path d="M39.0142 28.3888H48.9857" stroke="#CBCBCB" stroke-width="1.64706" stroke-linecap="round"/>
<rect x="47" y="10" width="16" height="16" rx="8" fill="#B3261E"/>
<path d="M56.375 14.1313H56.5361V15.1895H56.4448C55.9829 15.1895 55.5837 15.2611 55.2471 15.4043C54.9141 15.5475 54.6401 15.7445 54.4253 15.9951C54.2104 16.2458 54.0493 16.5394 53.9419 16.876C53.8381 17.209 53.7861 17.5635 53.7861 17.9395V19.1694C53.7861 19.481 53.8201 19.7567 53.8882 19.9966C53.9562 20.2329 54.0511 20.4316 54.1729 20.5928C54.2982 20.7503 54.4414 20.8703 54.6025 20.9526C54.7637 21.035 54.9373 21.0762 55.1235 21.0762C55.3169 21.0762 55.4924 21.0368 55.6499 20.958C55.8075 20.8757 55.9417 20.7629 56.0527 20.6196C56.1637 20.4764 56.2479 20.3063 56.3052 20.1094C56.3625 19.9124 56.3911 19.6976 56.3911 19.4648C56.3911 19.2428 56.3625 19.0352 56.3052 18.8418C56.2515 18.6449 56.1709 18.473 56.0635 18.3262C55.9561 18.1758 55.8218 18.0594 55.6606 17.9771C55.5031 17.8911 55.3205 17.8481 55.1128 17.8481C54.855 17.8481 54.6204 17.909 54.4092 18.0308C54.2015 18.1525 54.0332 18.3118 53.9043 18.5088C53.779 18.7021 53.7109 18.908 53.7002 19.1265L53.2061 18.9653C53.2347 18.6323 53.3081 18.3333 53.4263 18.0684C53.548 17.8034 53.7074 17.5778 53.9043 17.3916C54.1012 17.2054 54.3286 17.064 54.5864 16.9673C54.8478 16.867 55.1343 16.8169 55.4458 16.8169C55.8254 16.8169 56.1548 16.8885 56.4341 17.0317C56.7134 17.175 56.9443 17.3701 57.127 17.6172C57.3132 17.8607 57.451 18.14 57.5405 18.4551C57.6336 18.7666 57.6802 19.0924 57.6802 19.4326C57.6802 19.8086 57.6229 20.1595 57.5083 20.4854C57.3937 20.8076 57.2254 21.0905 57.0034 21.334C56.785 21.5775 56.5182 21.7673 56.2031 21.9033C55.8916 22.0394 55.5371 22.1074 55.1396 22.1074C54.7207 22.1074 54.3465 22.0269 54.0171 21.8657C53.6912 21.7046 53.4137 21.4826 53.1846 21.1997C52.959 20.9168 52.7871 20.591 52.6689 20.2222C52.5508 19.8534 52.4917 19.4631 52.4917 19.0513V18.5142C52.4917 17.9198 52.5669 17.3594 52.7173 16.833C52.8677 16.3031 53.0986 15.8358 53.4102 15.4312C53.7253 15.0265 54.1281 14.7096 54.6187 14.4805C55.1092 14.2477 55.6947 14.1313 56.375 14.1313Z" fill="white"/>
<path d="M32.7588 55.312C32.7268 55.096 32.6548 54.9 32.5428 54.724C32.4308 54.54 32.2908 54.38 32.1228 54.244C31.9548 54.108 31.7628 54.004 31.5468 53.932C31.3388 53.852 31.1188 53.812 30.8868 53.812C30.4628 53.812 30.1028 53.896 29.8068 54.064C29.5108 54.224 29.2708 54.444 29.0868 54.724C28.9028 54.996 28.7668 55.308 28.6788 55.66C28.5988 56.012 28.5588 56.376 28.5588 56.752C28.5588 57.112 28.5988 57.464 28.6788 57.808C28.7668 58.144 28.9028 58.448 29.0868 58.72C29.2708 58.992 29.5108 59.212 29.8068 59.38C30.1028 59.54 30.4628 59.62 30.8868 59.62C31.4628 59.62 31.9108 59.444 32.2308 59.092C32.5588 58.74 32.7588 58.276 32.8307 57.7H34.6548C34.6068 58.236 34.4828 58.72 34.2828 59.152C34.0828 59.584 33.8188 59.952 33.4908 60.256C33.1628 60.56 32.7788 60.792 32.3388 60.952C31.8988 61.112 31.4148 61.192 30.8868 61.192C30.2308 61.192 29.6388 61.08 29.1108 60.856C28.5908 60.624 28.1508 60.308 27.7908 59.908C27.4308 59.508 27.1548 59.04 26.9628 58.504C26.7708 57.96 26.6748 57.376 26.6748 56.752C26.6748 56.112 26.7708 55.52 26.9628 54.976C27.1548 54.424 27.4308 53.944 27.7908 53.536C28.1508 53.128 28.5908 52.808 29.1108 52.576C29.6388 52.344 30.2308 52.228 30.8868 52.228C31.3588 52.228 31.8028 52.296 32.2188 52.432C32.6428 52.568 33.0188 52.768 33.3468 53.032C33.6828 53.288 33.9588 53.608 34.1748 53.992C34.3908 54.376 34.5268 54.816 34.5828 55.312H32.7588ZM36.2613 52.432H37.9653V55.66H38.0013C38.2173 55.3 38.4933 55.04 38.8293 54.88C39.1653 54.712 39.4933 54.628 39.8133 54.628C40.2693 54.628 40.6413 54.692 40.9293 54.82C41.2253 54.94 41.4573 55.112 41.6253 55.336C41.7933 55.552 41.9093 55.82 41.9733 56.14C42.0453 56.452 42.0813 56.8 42.0813 57.184V61H40.3773V57.496C40.3773 56.984 40.2973 56.604 40.1373 56.356C39.9773 56.1 39.6933 55.972 39.2853 55.972C38.8213 55.972 38.4853 56.112 38.2773 56.392C38.0693 56.664 37.9653 57.116 37.9653 57.748V61H36.2613V52.432ZM43.8026 56.704C43.8266 56.304 43.9266 55.972 44.1026 55.708C44.2786 55.444 44.5026 55.232 44.7746 55.072C45.0466 54.912 45.3506 54.8 45.6866 54.736C46.0306 54.664 46.3746 54.628 46.7186 54.628C47.0306 54.628 47.3466 54.652 47.6666 54.7C47.9866 54.74 48.2786 54.824 48.5426 54.952C48.8066 55.08 49.0226 55.26 49.1906 55.492C49.3586 55.716 49.4426 56.016 49.4426 56.392V59.62C49.4426 59.9 49.4586 60.168 49.4906 60.424C49.5226 60.68 49.5786 60.872 49.6586 61H47.9306C47.8986 60.904 47.8706 60.808 47.8466 60.712C47.8306 60.608 47.8186 60.504 47.8106 60.4C47.5386 60.68 47.2186 60.876 46.8506 60.988C46.4826 61.1 46.1066 61.156 45.7226 61.156C45.4266 61.156 45.1506 61.12 44.8946 61.048C44.6386 60.976 44.4146 60.864 44.2226 60.712C44.0306 60.56 43.8786 60.368 43.7666 60.136C43.6626 59.904 43.6106 59.628 43.6106 59.308C43.6106 58.956 43.6706 58.668 43.7906 58.444C43.9186 58.212 44.0786 58.028 44.2706 57.892C44.4706 57.756 44.6946 57.656 44.9426 57.592C45.1986 57.52 45.4546 57.464 45.7106 57.424C45.9666 57.384 46.2186 57.352 46.4666 57.328C46.7146 57.304 46.9346 57.268 47.1266 57.22C47.3186 57.172 47.4706 57.104 47.5826 57.016C47.6946 56.92 47.7466 56.784 47.7386 56.608C47.7386 56.424 47.7066 56.28 47.6426 56.176C47.5866 56.064 47.5066 55.98 47.4026 55.924C47.3066 55.86 47.1906 55.82 47.0546 55.804C46.9266 55.78 46.7866 55.768 46.6346 55.768C46.2986 55.768 46.0346 55.84 45.8426 55.984C45.6506 56.128 45.5386 56.368 45.5066 56.704H43.8026ZM47.7386 57.964C47.6666 58.028 47.5746 58.08 47.4626 58.12C47.3586 58.152 47.2426 58.18 47.1146 58.204C46.9946 58.228 46.8666 58.248 46.7306 58.264C46.5946 58.28 46.4586 58.3 46.3226 58.324C46.1946 58.348 46.0666 58.38 45.9386 58.42C45.8186 58.46 45.7106 58.516 45.6146 58.588C45.5266 58.652 45.4546 58.736 45.3986 58.84C45.3426 58.944 45.3146 59.076 45.3146 59.236C45.3146 59.388 45.3426 59.516 45.3986 59.62C45.4546 59.724 45.5306 59.808 45.6266 59.872C45.7226 59.928 45.8346 59.968 45.9626 59.992C46.0906 60.016 46.2226 60.028 46.3586 60.028C46.6946 60.028 46.9546 59.972 47.1386 59.86C47.3226 59.748 47.4586 59.616 47.5466 59.464C47.6346 59.304 47.6866 59.144 47.7026 58.984C47.7266 58.824 47.7386 58.696 47.7386 58.6V57.964ZM53.4252 54.796H54.6732V55.936H53.4252V59.008C53.4252 59.296 53.4732 59.488 53.5692 59.584C53.6652 59.68 53.8572 59.728 54.1452 59.728C54.2412 59.728 54.3332 59.724 54.4212 59.716C54.5092 59.708 54.5932 59.696 54.6732 59.68V61C54.5292 61.024 54.3692 61.04 54.1932 61.048C54.0172 61.056 53.8452 61.06 53.6772 61.06C53.4132 61.06 53.1612 61.04 52.9212 61C52.6892 60.968 52.4812 60.9 52.2972 60.796C52.1212 60.692 51.9812 60.544 51.8772 60.352C51.7732 60.16 51.7212 59.908 51.7212 59.596V55.936H50.6892V54.796H51.7212V52.936H53.4252V54.796ZM57.3039 58.984C57.3039 59.168 57.3399 59.328 57.4119 59.464C57.4919 59.592 57.5919 59.7 57.7119 59.788C57.8319 59.868 57.9679 59.928 58.1199 59.968C58.2799 60.008 58.4439 60.028 58.6119 60.028C58.7319 60.028 58.8559 60.016 58.9839 59.992C59.1199 59.96 59.2399 59.916 59.3439 59.86C59.4559 59.796 59.5479 59.716 59.6199 59.62C59.6919 59.516 59.7279 59.388 59.7279 59.236C59.7279 58.98 59.5559 58.788 59.2119 58.66C58.8759 58.532 58.4039 58.404 57.7959 58.276C57.5479 58.22 57.3039 58.156 57.0639 58.084C56.8319 58.004 56.6239 57.904 56.4399 57.784C56.2559 57.656 56.1079 57.5 55.9959 57.316C55.8839 57.124 55.8279 56.892 55.8279 56.62C55.8279 56.22 55.9039 55.892 56.0559 55.636C56.2159 55.38 56.4239 55.18 56.6799 55.036C56.9359 54.884 57.2239 54.78 57.5439 54.724C57.8639 54.66 58.1919 54.628 58.5279 54.628C58.8639 54.628 59.1879 54.66 59.4999 54.724C59.8199 54.788 60.1039 54.896 60.3519 55.048C60.5999 55.2 60.8039 55.404 60.9639 55.66C61.1319 55.908 61.2319 56.224 61.2639 56.608H59.6439C59.6199 56.28 59.4959 56.06 59.2719 55.948C59.0479 55.828 58.7839 55.768 58.4799 55.768C58.3839 55.768 58.2799 55.776 58.1679 55.792C58.0559 55.8 57.9519 55.824 57.8559 55.864C57.7679 55.904 57.6919 55.964 57.6279 56.044C57.5639 56.116 57.5319 56.216 57.5319 56.344C57.5319 56.496 57.5879 56.62 57.6999 56.716C57.8119 56.812 57.9559 56.892 58.1319 56.956C58.3159 57.012 58.5239 57.064 58.7559 57.112C58.9879 57.16 59.2239 57.212 59.4639 57.268C59.7119 57.324 59.9519 57.392 60.1839 57.472C60.4239 57.552 60.6359 57.66 60.8199 57.796C61.0039 57.924 61.1519 58.088 61.2639 58.288C61.3759 58.48 61.4319 58.72 61.4319 59.008C61.4319 59.416 61.3479 59.76 61.1799 60.04C61.0199 60.312 60.8079 60.532 60.5439 60.7C60.2799 60.868 59.9759 60.984 59.6319 61.048C59.2959 61.12 58.9519 61.156 58.5999 61.156C58.2399 61.156 57.8879 61.12 57.5439 61.048C57.1999 60.976 56.8919 60.856 56.6199 60.688C56.3559 60.52 56.1359 60.3 55.9599 60.028C55.7919 59.748 55.6999 59.4 55.6839 58.984H57.3039Z" fill="#1D1B20"/>
</svg>
