<svg width="91" height="80" viewBox="0 0 91 80" fill="none" xmlns="http://www.w3.org/2000/svg">
<g clip-path="url(#clip0_4_1572)">
<path d="M46.8815 22.051C47.1571 21.4726 46.9129 20.7709 46.2997 20.5849C44.8538 20.1461 43.302 20.138 41.8381 20.5757C40.0014 21.1248 38.4341 22.3364 37.4401 23.9756C36.4461 25.6148 36.0963 27.5647 36.4584 29.4472C36.8206 31.3297 37.8689 33.0106 39.4002 34.164C40.9314 35.3174 42.8364 35.861 44.7457 35.6894C46.655 35.5179 48.4326 34.6434 49.7338 33.2355C51.0349 31.8277 51.7668 29.9868 51.7876 28.0699C51.8042 26.5421 51.3681 25.0528 50.5472 23.7842C50.1991 23.2462 49.4573 23.2051 48.9774 23.6297C48.4975 24.0543 48.4659 24.7836 48.7787 25.3428C49.237 26.1621 49.4777 27.0928 49.4674 28.0447C49.4528 29.3866 48.9405 30.6752 48.0297 31.6607C47.1189 32.6462 45.8746 33.2583 44.5381 33.3784C43.2016 33.4985 41.8681 33.1179 40.7962 32.3106C39.7243 31.5032 38.9905 30.3266 38.737 29.0088C38.4835 27.6911 38.7284 26.3261 39.4242 25.1787C40.12 24.0313 41.2171 23.1831 42.5028 22.7988C43.4149 22.5261 44.3758 22.5006 45.2898 22.7149C45.9136 22.8612 46.6059 22.6295 46.8815 22.051Z" fill="#54656F"/>
<circle cx="51.1968" cy="19.8375" r="1.96312" fill="#24D366"/>
<path fill-rule="evenodd" clip-rule="evenodd" d="M52.5388 21.7449C52.11 22.1767 52.0602 22.8497 52.3527 23.3833C53.1037 24.7537 53.5308 26.327 53.5308 28C53.5308 31.4027 51.7641 34.3927 49.098 36.1028C48.6034 36.4201 48.3241 37.0035 48.4615 37.5748C48.6464 38.3433 49.4866 38.7582 50.1628 38.3489C53.6616 36.2308 56 32.3885 56 28C56 25.7842 55.4039 23.7077 54.3632 21.9221C53.978 21.261 53.0779 21.2019 52.5388 21.7449ZM44.0191 40.0882C44.7664 40.0817 45.2641 39.3594 45.0893 38.6327L45.0513 38.4751C44.9272 37.9592 44.442 37.6195 43.9113 37.6195C39.2782 37.6195 35.4101 34.3441 34.4963 29.9824C34.3728 29.3929 33.9063 28.9166 33.3067 28.8595C32.5377 28.7863 31.8802 29.4192 32.0185 30.1792C33.0446 35.8155 37.9789 40.0887 43.9113 40.0887C43.9473 40.0887 43.9832 40.0885 44.0191 40.0882ZM43.9113 18.3805C39.7889 18.3805 36.2722 20.9736 34.9033 24.6176C34.6853 25.1977 34.1263 25.6023 33.5094 25.5436C32.7604 25.4723 32.2375 24.7589 32.4834 24.0478C34.1209 19.3122 38.6189 15.9113 43.9113 15.9113C45.6045 15.9113 47.2164 16.2594 48.6793 16.8879C49.44 17.2148 49.5633 18.1966 48.9799 18.7841C48.5874 19.1794 47.9868 19.2661 47.4694 19.0599C46.3688 18.6215 45.1682 18.3805 43.9113 18.3805Z" fill="#54656F"/>
</g>
<path d="M26.5941 57.76C26.5941 58.92 26.2701 59.784 25.6221 60.352C24.9741 60.912 24.0781 61.192 22.9341 61.192C21.7741 61.192 20.8741 60.912 20.2341 60.352C19.6021 59.792 19.2861 58.928 19.2861 57.76V52.432H21.1701V57.76C21.1701 57.992 21.1901 58.22 21.2301 58.444C21.2701 58.668 21.3541 58.868 21.4821 59.044C21.6101 59.212 21.7861 59.352 22.0101 59.464C22.2421 59.568 22.5501 59.62 22.9341 59.62C23.6061 59.62 24.0701 59.472 24.3261 59.176C24.5821 58.872 24.7101 58.4 24.7101 57.76V52.432H26.5941V57.76ZM31.6687 59.884C31.9487 59.884 32.1807 59.828 32.3647 59.716C32.5567 59.604 32.7087 59.46 32.8207 59.284C32.9407 59.1 33.0247 58.888 33.0727 58.648C33.1207 58.408 33.1447 58.164 33.1447 57.916C33.1447 57.668 33.1167 57.424 33.0607 57.184C33.0127 56.944 32.9287 56.732 32.8087 56.548C32.6887 56.356 32.5327 56.204 32.3407 56.092C32.1567 55.972 31.9287 55.912 31.6567 55.912C31.3767 55.912 31.1407 55.972 30.9487 56.092C30.7647 56.204 30.6127 56.352 30.4927 56.536C30.3807 56.72 30.3007 56.932 30.2527 57.172C30.2047 57.412 30.1807 57.66 30.1807 57.916C30.1807 58.164 30.2047 58.408 30.2527 58.648C30.3087 58.888 30.3927 59.1 30.5047 59.284C30.6247 59.46 30.7807 59.604 30.9727 59.716C31.1647 59.828 31.3967 59.884 31.6687 59.884ZM28.5367 54.796H30.1567V55.588H30.1807C30.3887 55.252 30.6527 55.008 30.9727 54.856C31.2927 54.704 31.6447 54.628 32.0287 54.628C32.5167 54.628 32.9367 54.72 33.2887 54.904C33.6407 55.088 33.9327 55.332 34.1647 55.636C34.3967 55.94 34.5687 56.296 34.6807 56.704C34.7927 57.104 34.8487 57.524 34.8487 57.964C34.8487 58.38 34.7927 58.78 34.6807 59.164C34.5687 59.548 34.3967 59.888 34.1647 60.184C33.9407 60.48 33.6567 60.716 33.3127 60.892C32.9767 61.068 32.5807 61.156 32.1247 61.156C31.7407 61.156 31.3847 61.08 31.0567 60.928C30.7367 60.768 30.4727 60.536 30.2647 60.232H30.2407V63.172H28.5367V54.796ZM40.7766 57.88C40.7766 57.624 40.7526 57.38 40.7046 57.148C40.6566 56.908 40.5726 56.7 40.4526 56.524C40.3406 56.34 40.1926 56.192 40.0086 56.08C39.8246 55.968 39.5926 55.912 39.3126 55.912C39.0326 55.912 38.7966 55.968 38.6046 56.08C38.4126 56.192 38.2566 56.34 38.1366 56.524C38.0246 56.708 37.9406 56.92 37.8846 57.16C37.8366 57.392 37.8126 57.636 37.8126 57.892C37.8126 58.132 37.8406 58.372 37.8966 58.612C37.9526 58.852 38.0406 59.068 38.1606 59.26C38.2886 59.444 38.4446 59.596 38.6286 59.716C38.8206 59.828 39.0486 59.884 39.3126 59.884C39.5926 59.884 39.8246 59.828 40.0086 59.716C40.2006 59.604 40.3526 59.456 40.4646 59.272C40.5766 59.08 40.6566 58.864 40.7046 58.624C40.7526 58.384 40.7766 58.136 40.7766 57.88ZM40.8006 60.208H40.7766C40.5766 60.544 40.3126 60.788 39.9846 60.94C39.6646 61.084 39.3006 61.156 38.8926 61.156C38.4286 61.156 38.0206 61.068 37.6686 60.892C37.3166 60.708 37.0246 60.464 36.7926 60.16C36.5686 59.848 36.3966 59.492 36.2766 59.092C36.1646 58.692 36.1086 58.276 36.1086 57.844C36.1086 57.428 36.1646 57.028 36.2766 56.644C36.3966 56.252 36.5686 55.908 36.7926 55.612C37.0246 55.316 37.3126 55.08 37.6566 54.904C38.0006 54.72 38.4006 54.628 38.8566 54.628C39.2246 54.628 39.5726 54.708 39.9006 54.868C40.2366 55.02 40.5006 55.248 40.6926 55.552H40.7166V52.432H42.4206V61H40.8006V60.208ZM44.1365 56.704C44.1605 56.304 44.2605 55.972 44.4365 55.708C44.6125 55.444 44.8365 55.232 45.1085 55.072C45.3805 54.912 45.6845 54.8 46.0205 54.736C46.3645 54.664 46.7085 54.628 47.0525 54.628C47.3645 54.628 47.6805 54.652 48.0005 54.7C48.3205 54.74 48.6125 54.824 48.8765 54.952C49.1405 55.08 49.3565 55.26 49.5245 55.492C49.6925 55.716 49.7765 56.016 49.7765 56.392V59.62C49.7765 59.9 49.7925 60.168 49.8245 60.424C49.8565 60.68 49.9125 60.872 49.9925 61H48.2645C48.2325 60.904 48.2045 60.808 48.1805 60.712C48.1645 60.608 48.1525 60.504 48.1445 60.4C47.8725 60.68 47.5525 60.876 47.1845 60.988C46.8165 61.1 46.4405 61.156 46.0565 61.156C45.7605 61.156 45.4845 61.12 45.2285 61.048C44.9725 60.976 44.7485 60.864 44.5565 60.712C44.3645 60.56 44.2125 60.368 44.1005 60.136C43.9965 59.904 43.9445 59.628 43.9445 59.308C43.9445 58.956 44.0045 58.668 44.1245 58.444C44.2525 58.212 44.4125 58.028 44.6045 57.892C44.8045 57.756 45.0285 57.656 45.2765 57.592C45.5325 57.52 45.7885 57.464 46.0445 57.424C46.3005 57.384 46.5525 57.352 46.8005 57.328C47.0485 57.304 47.2685 57.268 47.4605 57.22C47.6525 57.172 47.8045 57.104 47.9165 57.016C48.0285 56.92 48.0805 56.784 48.0725 56.608C48.0725 56.424 48.0405 56.28 47.9765 56.176C47.9205 56.064 47.8405 55.98 47.7365 55.924C47.6405 55.86 47.5245 55.82 47.3885 55.804C47.2605 55.78 47.1205 55.768 46.9685 55.768C46.6325 55.768 46.3685 55.84 46.1765 55.984C45.9845 56.128 45.8725 56.368 45.8405 56.704H44.1365ZM48.0725 57.964C48.0005 58.028 47.9085 58.08 47.7965 58.12C47.6925 58.152 47.5765 58.18 47.4485 58.204C47.3285 58.228 47.2005 58.248 47.0645 58.264C46.9285 58.28 46.7925 58.3 46.6565 58.324C46.5285 58.348 46.4005 58.38 46.2725 58.42C46.1525 58.46 46.0445 58.516 45.9485 58.588C45.8605 58.652 45.7885 58.736 45.7325 58.84C45.6765 58.944 45.6485 59.076 45.6485 59.236C45.6485 59.388 45.6765 59.516 45.7325 59.62C45.7885 59.724 45.8645 59.808 45.9605 59.872C46.0565 59.928 46.1685 59.968 46.2965 59.992C46.4245 60.016 46.5565 60.028 46.6925 60.028C47.0285 60.028 47.2885 59.972 47.4725 59.86C47.6565 59.748 47.7925 59.616 47.8805 59.464C47.9685 59.304 48.0205 59.144 48.0365 58.984C48.0605 58.824 48.0725 58.696 48.0725 58.6V57.964ZM53.7592 54.796H55.0072V55.936H53.7592V59.008C53.7592 59.296 53.8072 59.488 53.9032 59.584C53.9992 59.68 54.1912 59.728 54.4792 59.728C54.5752 59.728 54.6672 59.724 54.7552 59.716C54.8432 59.708 54.9272 59.696 55.0072 59.68V61C54.8632 61.024 54.7032 61.04 54.5272 61.048C54.3512 61.056 54.1792 61.06 54.0112 61.06C53.7472 61.06 53.4952 61.04 53.2552 61C53.0232 60.968 52.8152 60.9 52.6312 60.796C52.4552 60.692 52.3152 60.544 52.2112 60.352C52.1072 60.16 52.0552 59.908 52.0552 59.596V55.936H51.0232V54.796H52.0552V52.936H53.7592V54.796ZM60.4939 57.232C60.4139 56.8 60.2699 56.472 60.0619 56.248C59.8619 56.024 59.5539 55.912 59.1379 55.912C58.8659 55.912 58.6379 55.96 58.4539 56.056C58.2779 56.144 58.1339 56.256 58.0219 56.392C57.9179 56.528 57.8419 56.672 57.7939 56.824C57.7539 56.976 57.7299 57.112 57.7219 57.232H60.4939ZM57.7219 58.312C57.7459 58.864 57.8859 59.264 58.1419 59.512C58.3979 59.76 58.7659 59.884 59.2459 59.884C59.5899 59.884 59.8859 59.8 60.1339 59.632C60.3819 59.456 60.5339 59.272 60.5899 59.08H62.0899C61.8499 59.824 61.4819 60.356 60.9859 60.676C60.4899 60.996 59.8899 61.156 59.1859 61.156C58.6979 61.156 58.2579 61.08 57.8659 60.928C57.4739 60.768 57.1419 60.544 56.8699 60.256C56.5979 59.968 56.3859 59.624 56.2339 59.224C56.0899 58.824 56.0179 58.384 56.0179 57.904C56.0179 57.44 56.0939 57.008 56.2459 56.608C56.3979 56.208 56.6139 55.864 56.8939 55.576C57.1739 55.28 57.5059 55.048 57.8899 54.88C58.2819 54.712 58.7139 54.628 59.1859 54.628C59.7139 54.628 60.1739 54.732 60.5659 54.94C60.9579 55.14 61.2779 55.412 61.5259 55.756C61.7819 56.1 61.9659 56.492 62.0779 56.932C62.1899 57.372 62.2299 57.832 62.1979 58.312H57.7219ZM65.0285 58.984C65.0285 59.168 65.0645 59.328 65.1365 59.464C65.2165 59.592 65.3165 59.7 65.4365 59.788C65.5565 59.868 65.6925 59.928 65.8445 59.968C66.0045 60.008 66.1685 60.028 66.3365 60.028C66.4565 60.028 66.5805 60.016 66.7085 59.992C66.8445 59.96 66.9645 59.916 67.0685 59.86C67.1805 59.796 67.2725 59.716 67.3445 59.62C67.4165 59.516 67.4525 59.388 67.4525 59.236C67.4525 58.98 67.2805 58.788 66.9365 58.66C66.6005 58.532 66.1285 58.404 65.5205 58.276C65.2725 58.22 65.0285 58.156 64.7885 58.084C64.5565 58.004 64.3485 57.904 64.1645 57.784C63.9805 57.656 63.8325 57.5 63.7205 57.316C63.6085 57.124 63.5525 56.892 63.5525 56.62C63.5525 56.22 63.6285 55.892 63.7805 55.636C63.9405 55.38 64.1485 55.18 64.4045 55.036C64.6605 54.884 64.9485 54.78 65.2685 54.724C65.5885 54.66 65.9165 54.628 66.2525 54.628C66.5885 54.628 66.9125 54.66 67.2245 54.724C67.5445 54.788 67.8285 54.896 68.0765 55.048C68.3245 55.2 68.5285 55.404 68.6885 55.66C68.8565 55.908 68.9565 56.224 68.9885 56.608H67.3685C67.3445 56.28 67.2205 56.06 66.9965 55.948C66.7725 55.828 66.5085 55.768 66.2045 55.768C66.1085 55.768 66.0045 55.776 65.8925 55.792C65.7805 55.8 65.6765 55.824 65.5805 55.864C65.4925 55.904 65.4165 55.964 65.3525 56.044C65.2885 56.116 65.2565 56.216 65.2565 56.344C65.2565 56.496 65.3125 56.62 65.4245 56.716C65.5365 56.812 65.6805 56.892 65.8565 56.956C66.0405 57.012 66.2485 57.064 66.4805 57.112C66.7125 57.16 66.9485 57.212 67.1885 57.268C67.4365 57.324 67.6765 57.392 67.9085 57.472C68.1485 57.552 68.3605 57.66 68.5445 57.796C68.7285 57.924 68.8765 58.088 68.9885 58.288C69.1005 58.48 69.1565 58.72 69.1565 59.008C69.1565 59.416 69.0725 59.76 68.9045 60.04C68.7445 60.312 68.5325 60.532 68.2685 60.7C68.0045 60.868 67.7005 60.984 67.3565 61.048C67.0205 61.12 66.6765 61.156 66.3245 61.156C65.9645 61.156 65.6125 61.12 65.2685 61.048C64.9245 60.976 64.6165 60.856 64.3445 60.688C64.0805 60.52 63.8605 60.3 63.6845 60.028C63.5165 59.748 63.4245 59.4 63.4085 58.984H65.0285Z" fill="#677882"/>
<defs>
<clipPath id="clip0_4_1572">
<rect x="12" y="12" width="64" height="32" rx="16" fill="white"/>
</clipPath>
</defs>
</svg>
