<svg width="91" height="80" viewBox="0 0 91 80" fill="none" xmlns="http://www.w3.org/2000/svg">
<g clip-path="url(#clip0_5_1976)">
<path fill-rule="evenodd" clip-rule="evenodd" d="M55.75 28C55.75 34.4893 50.4893 39.75 44 39.75C42.3039 39.75 40.6918 39.3906 39.2355 38.7439C38.5188 38.4256 37.6476 38.6557 36.8893 38.8556C35.3408 39.2636 33.9219 37.8616 34.3113 36.3083C34.4643 35.6984 34.5345 34.9913 34.188 34.4666C32.9631 32.6118 32.25 30.3892 32.25 28C32.25 21.5107 37.5107 16.25 44 16.25C50.4893 16.25 55.75 21.5107 55.75 28ZM38.6464 36.0796C38.944 36.0172 39.2527 36.0741 39.5196 36.2199C40.8503 36.9467 42.3769 37.3599 44 37.3599C49.1693 37.3599 53.3599 33.1693 53.3599 28C53.3599 22.8307 49.1693 18.6401 44 18.6401C38.8307 18.6401 34.6401 22.8307 34.6401 28C34.6401 30.3382 35.4975 32.4762 36.915 34.1166C37.1325 34.3683 37.2153 34.7134 37.1117 35.0294C36.8969 35.6842 37.4715 36.3259 38.146 36.1845L38.6464 36.0796Z" fill="#54656F"/>
<path fill-rule="evenodd" clip-rule="evenodd" d="M42.0872 22.5547C42.0872 21.9143 41.4732 21.4509 40.8982 21.7328C38.6084 22.8554 37.0319 25.2094 37.0319 27.9317C37.0319 30.6539 38.6084 33.0079 40.8982 34.1305C41.4732 34.4124 42.0872 33.949 42.0872 33.3086C42.0872 32.9097 41.8381 32.5593 41.489 32.3665C39.9273 31.5045 38.8695 29.8416 38.8695 27.9317C38.8695 26.0217 39.9273 24.3588 41.489 23.4968C41.8381 23.304 42.0872 22.9536 42.0872 22.5547ZM45.6396 33.3774C45.6396 32.9702 45.9 32.6147 46.2614 32.427C47.8848 31.5839 48.9938 29.8873 48.9938 27.9317C48.9938 25.976 47.8848 24.2794 46.2614 23.4363C45.9 23.2486 45.6396 22.8931 45.6396 22.4859C45.6396 21.8567 46.2362 21.3957 46.808 21.6583C49.1825 22.7488 50.8313 25.1477 50.8313 27.9317C50.8313 30.7157 49.1825 33.1145 46.808 34.205C46.2362 34.4677 45.6396 34.0067 45.6396 33.3774Z" fill="#54656F"/>
<circle cx="43.9317" cy="27.9317" r="1.84448" fill="#54656F"/>
</g>
<path d="M22.0127 55.312C21.9807 55.096 21.9087 54.9 21.7967 54.724C21.6847 54.54 21.5447 54.38 21.3767 54.244C21.2087 54.108 21.0167 54.004 20.8007 53.932C20.5927 53.852 20.3727 53.812 20.1407 53.812C19.7167 53.812 19.3567 53.896 19.0607 54.064C18.7647 54.224 18.5247 54.444 18.3407 54.724C18.1567 54.996 18.0207 55.308 17.9327 55.66C17.8527 56.012 17.8127 56.376 17.8127 56.752C17.8127 57.112 17.8527 57.464 17.9327 57.808C18.0207 58.144 18.1567 58.448 18.3407 58.72C18.5247 58.992 18.7647 59.212 19.0607 59.38C19.3567 59.54 19.7167 59.62 20.1407 59.62C20.7167 59.62 21.1647 59.444 21.4847 59.092C21.8127 58.74 22.0127 58.276 22.0847 57.7H23.9087C23.8607 58.236 23.7367 58.72 23.5367 59.152C23.3367 59.584 23.0727 59.952 22.7447 60.256C22.4167 60.56 22.0327 60.792 21.5927 60.952C21.1527 61.112 20.6687 61.192 20.1407 61.192C19.4847 61.192 18.8927 61.08 18.3647 60.856C17.8447 60.624 17.4047 60.308 17.0447 59.908C16.6847 59.508 16.4087 59.04 16.2167 58.504C16.0247 57.96 15.9287 57.376 15.9287 56.752C15.9287 56.112 16.0247 55.52 16.2167 54.976C16.4087 54.424 16.6847 53.944 17.0447 53.536C17.4047 53.128 17.8447 52.808 18.3647 52.576C18.8927 52.344 19.4847 52.228 20.1407 52.228C20.6127 52.228 21.0567 52.296 21.4727 52.432C21.8967 52.568 22.2727 52.768 22.6007 53.032C22.9367 53.288 23.2127 53.608 23.4287 53.992C23.6447 54.376 23.7807 54.816 23.8367 55.312H22.0127ZM25.5152 52.432H27.2192V55.66H27.2552C27.4712 55.3 27.7472 55.04 28.0832 54.88C28.4192 54.712 28.7472 54.628 29.0672 54.628C29.5232 54.628 29.8952 54.692 30.1832 54.82C30.4792 54.94 30.7112 55.112 30.8792 55.336C31.0472 55.552 31.1632 55.82 31.2272 56.14C31.2992 56.452 31.3352 56.8 31.3352 57.184V61H29.6312V57.496C29.6312 56.984 29.5512 56.604 29.3912 56.356C29.2312 56.1 28.9472 55.972 28.5392 55.972C28.0752 55.972 27.7392 56.112 27.5312 56.392C27.3232 56.664 27.2192 57.116 27.2192 57.748V61H25.5152V52.432ZM33.0565 56.704C33.0805 56.304 33.1805 55.972 33.3565 55.708C33.5325 55.444 33.7565 55.232 34.0285 55.072C34.3005 54.912 34.6045 54.8 34.9405 54.736C35.2845 54.664 35.6285 54.628 35.9725 54.628C36.2845 54.628 36.6005 54.652 36.9205 54.7C37.2405 54.74 37.5325 54.824 37.7965 54.952C38.0605 55.08 38.2765 55.26 38.4445 55.492C38.6125 55.716 38.6965 56.016 38.6965 56.392V59.62C38.6965 59.9 38.7125 60.168 38.7445 60.424C38.7765 60.68 38.8325 60.872 38.9125 61H37.1845C37.1525 60.904 37.1245 60.808 37.1005 60.712C37.0845 60.608 37.0725 60.504 37.0645 60.4C36.7925 60.68 36.4725 60.876 36.1045 60.988C35.7365 61.1 35.3605 61.156 34.9765 61.156C34.6805 61.156 34.4045 61.12 34.1485 61.048C33.8925 60.976 33.6685 60.864 33.4765 60.712C33.2845 60.56 33.1325 60.368 33.0205 60.136C32.9165 59.904 32.8645 59.628 32.8645 59.308C32.8645 58.956 32.9245 58.668 33.0445 58.444C33.1725 58.212 33.3325 58.028 33.5245 57.892C33.7245 57.756 33.9485 57.656 34.1965 57.592C34.4525 57.52 34.7085 57.464 34.9645 57.424C35.2205 57.384 35.4725 57.352 35.7205 57.328C35.9685 57.304 36.1885 57.268 36.3805 57.22C36.5725 57.172 36.7245 57.104 36.8365 57.016C36.9485 56.92 37.0005 56.784 36.9925 56.608C36.9925 56.424 36.9605 56.28 36.8965 56.176C36.8405 56.064 36.7605 55.98 36.6565 55.924C36.5605 55.86 36.4445 55.82 36.3085 55.804C36.1805 55.78 36.0405 55.768 35.8885 55.768C35.5525 55.768 35.2885 55.84 35.0965 55.984C34.9045 56.128 34.7925 56.368 34.7605 56.704H33.0565ZM36.9925 57.964C36.9205 58.028 36.8285 58.08 36.7165 58.12C36.6125 58.152 36.4965 58.18 36.3685 58.204C36.2485 58.228 36.1205 58.248 35.9845 58.264C35.8485 58.28 35.7125 58.3 35.5765 58.324C35.4485 58.348 35.3205 58.38 35.1925 58.42C35.0725 58.46 34.9645 58.516 34.8685 58.588C34.7805 58.652 34.7085 58.736 34.6525 58.84C34.5965 58.944 34.5685 59.076 34.5685 59.236C34.5685 59.388 34.5965 59.516 34.6525 59.62C34.7085 59.724 34.7845 59.808 34.8805 59.872C34.9765 59.928 35.0885 59.968 35.2165 59.992C35.3445 60.016 35.4765 60.028 35.6125 60.028C35.9485 60.028 36.2085 59.972 36.3925 59.86C36.5765 59.748 36.7125 59.616 36.8005 59.464C36.8885 59.304 36.9405 59.144 36.9565 58.984C36.9805 58.824 36.9925 58.696 36.9925 58.6V57.964ZM40.5191 54.796H42.1391V55.66H42.1751C42.3911 55.3 42.6711 55.04 43.0151 54.88C43.3591 54.712 43.7111 54.628 44.0711 54.628C44.5271 54.628 44.8991 54.692 45.1871 54.82C45.4831 54.94 45.7151 55.112 45.8831 55.336C46.0511 55.552 46.1671 55.82 46.2311 56.14C46.3031 56.452 46.3391 56.8 46.3391 57.184V61H44.6351V57.496C44.6351 56.984 44.5551 56.604 44.3951 56.356C44.2351 56.1 43.9511 55.972 43.5431 55.972C43.0791 55.972 42.7431 56.112 42.5351 56.392C42.3271 56.664 42.2231 57.116 42.2231 57.748V61H40.5191V54.796ZM48.1324 54.796H49.7524V55.66H49.7884C50.0044 55.3 50.2844 55.04 50.6284 54.88C50.9724 54.712 51.3244 54.628 51.6844 54.628C52.1404 54.628 52.5124 54.692 52.8004 54.82C53.0964 54.94 53.3284 55.112 53.4964 55.336C53.6644 55.552 53.7804 55.82 53.8444 56.14C53.9164 56.452 53.9524 56.8 53.9524 57.184V61H52.2484V57.496C52.2484 56.984 52.1684 56.604 52.0084 56.356C51.8484 56.1 51.5644 55.972 51.1564 55.972C50.6924 55.972 50.3564 56.112 50.1484 56.392C49.9404 56.664 49.8364 57.116 49.8364 57.748V61H48.1324V54.796ZM59.9217 57.232C59.8417 56.8 59.6977 56.472 59.4897 56.248C59.2897 56.024 58.9817 55.912 58.5657 55.912C58.2937 55.912 58.0657 55.96 57.8817 56.056C57.7057 56.144 57.5617 56.256 57.4497 56.392C57.3457 56.528 57.2697 56.672 57.2217 56.824C57.1817 56.976 57.1577 57.112 57.1497 57.232H59.9217ZM57.1497 58.312C57.1737 58.864 57.3137 59.264 57.5697 59.512C57.8257 59.76 58.1937 59.884 58.6737 59.884C59.0177 59.884 59.3137 59.8 59.5617 59.632C59.8097 59.456 59.9617 59.272 60.0177 59.08H61.5177C61.2777 59.824 60.9097 60.356 60.4137 60.676C59.9177 60.996 59.3177 61.156 58.6137 61.156C58.1257 61.156 57.6857 61.08 57.2937 60.928C56.9017 60.768 56.5697 60.544 56.2977 60.256C56.0257 59.968 55.8137 59.624 55.6617 59.224C55.5177 58.824 55.4457 58.384 55.4457 57.904C55.4457 57.44 55.5217 57.008 55.6737 56.608C55.8257 56.208 56.0417 55.864 56.3217 55.576C56.6017 55.28 56.9337 55.048 57.3177 54.88C57.7097 54.712 58.1417 54.628 58.6137 54.628C59.1417 54.628 59.6017 54.732 59.9937 54.94C60.3857 55.14 60.7057 55.412 60.9537 55.756C61.2097 56.1 61.3937 56.492 61.5057 56.932C61.6177 57.372 61.6577 57.832 61.6257 58.312H57.1497ZM63.1843 52.432H64.8883V61H63.1843V52.432ZM68.05 58.984C68.05 59.168 68.086 59.328 68.158 59.464C68.238 59.592 68.338 59.7 68.458 59.788C68.578 59.868 68.714 59.928 68.866 59.968C69.026 60.008 69.19 60.028 69.358 60.028C69.478 60.028 69.602 60.016 69.73 59.992C69.866 59.96 69.986 59.916 70.09 59.86C70.202 59.796 70.294 59.716 70.366 59.62C70.438 59.516 70.474 59.388 70.474 59.236C70.474 58.98 70.302 58.788 69.958 58.66C69.622 58.532 69.15 58.404 68.542 58.276C68.294 58.22 68.05 58.156 67.81 58.084C67.578 58.004 67.37 57.904 67.186 57.784C67.002 57.656 66.854 57.5 66.742 57.316C66.63 57.124 66.574 56.892 66.574 56.62C66.574 56.22 66.65 55.892 66.802 55.636C66.962 55.38 67.17 55.18 67.426 55.036C67.682 54.884 67.97 54.78 68.29 54.724C68.61 54.66 68.938 54.628 69.274 54.628C69.61 54.628 69.934 54.66 70.246 54.724C70.566 54.788 70.85 54.896 71.098 55.048C71.346 55.2 71.55 55.404 71.71 55.66C71.878 55.908 71.978 56.224 72.01 56.608H70.39C70.366 56.28 70.242 56.06 70.018 55.948C69.794 55.828 69.53 55.768 69.226 55.768C69.13 55.768 69.026 55.776 68.914 55.792C68.802 55.8 68.698 55.824 68.602 55.864C68.514 55.904 68.438 55.964 68.374 56.044C68.31 56.116 68.278 56.216 68.278 56.344C68.278 56.496 68.334 56.62 68.446 56.716C68.558 56.812 68.702 56.892 68.878 56.956C69.062 57.012 69.27 57.064 69.502 57.112C69.734 57.16 69.97 57.212 70.21 57.268C70.458 57.324 70.698 57.392 70.93 57.472C71.17 57.552 71.382 57.66 71.566 57.796C71.75 57.924 71.898 58.088 72.01 58.288C72.122 58.48 72.178 58.72 72.178 59.008C72.178 59.416 72.094 59.76 71.926 60.04C71.766 60.312 71.554 60.532 71.29 60.7C71.026 60.868 70.722 60.984 70.378 61.048C70.042 61.12 69.698 61.156 69.346 61.156C68.986 61.156 68.634 61.12 68.29 61.048C67.946 60.976 67.638 60.856 67.366 60.688C67.102 60.52 66.882 60.3 66.706 60.028C66.538 59.748 66.446 59.4 66.43 58.984H68.05Z" fill="#54656F"/>
<defs>
<clipPath id="clip0_5_1976">
<rect x="12" y="12" width="64" height="32" rx="16" fill="white"/>
</clipPath>
</defs>
</svg>
