<svg width="91" height="78" viewBox="0 0 91 78" fill="none" xmlns="http://www.w3.org/2000/svg">
<g clip-path="url(#clip0_3_1562)">
<g clip-path="url(#clip1_3_1562)">
<path d="M44.0098 28.1252C45.8712 28.1252 47.3915 26.6326 47.3915 24.7933C47.3915 22.9541 45.8809 21.4615 44.0098 21.4615C42.1483 21.4615 40.6377 22.9444 40.6377 24.7933C40.6377 26.6422 42.1483 28.1252 44.0098 28.1252ZM47.0017 28.6452H46.7288C46.6314 28.6452 46.4949 28.6837 46.4072 28.7222C46.4072 28.7222 46.1928 28.8474 45.9979 28.9244C45.4131 29.1748 44.7407 29.3193 44.0292 29.3193C43.3178 29.3193 42.6551 29.1748 42.0606 28.9341C41.8657 28.8474 41.6415 28.7222 41.6415 28.7222C41.5636 28.6741 41.4174 28.6452 41.3199 28.6452H41.0568C39.975 28.78 38.8445 29.7237 38.5229 30.7541C38.5229 30.7541 38.1818 31.4474 38.1331 32.7956C38.1331 32.9689 38.2695 33.2 38.4547 33.2963C38.4547 33.2963 40.2869 34.4615 44.0195 34.4615C47.7521 34.4615 49.5843 33.2963 49.5843 33.2963C49.7695 33.2 49.9157 32.9496 49.9059 32.7956C49.8572 31.4474 49.5259 30.783 49.5259 30.783C49.2237 29.7526 48.0737 28.7993 47.0017 28.6452Z" fill="#54656F"/>
<path d="M47.0797 27.8459C47.4402 27.5667 47.8691 27.3644 48.2784 27.3067H48.4635C48.561 27.3067 48.7072 27.3452 48.7852 27.3837C48.7852 27.3837 48.9411 27.4704 49.097 27.5378C49.5746 27.74 50.1203 27.8556 50.6953 27.8556C51.2703 27.8556 51.8258 27.74 52.3034 27.5378C52.4593 27.4704 52.6152 27.3837 52.6152 27.3837C52.6932 27.3356 52.8394 27.3067 52.9369 27.3067H53.1318C54.0089 27.4319 54.9445 28.2022 55.1881 29.0496C55.1881 29.0496 55.461 29.5889 55.5 30.6867C55.5 30.783 55.3538 31.0237 55.1784 31.12C55.1784 31.12 53.7458 32.0348 50.7051 32.0348C50.6563 32.0348 50.6076 32.0348 50.5589 32.0348C50.5686 31.9096 50.5784 31.7941 50.5784 31.6689C50.5686 29.6756 49.0385 28.0481 47.0797 27.8459ZM50.6953 26.883C52.2157 26.883 53.4436 25.6696 53.4436 24.1674C53.4436 22.6652 52.2157 21.4519 50.6953 21.4519C49.175 21.4519 47.947 22.6652 47.947 24.1674C47.947 25.6696 49.175 26.883 50.6953 26.883Z" fill="#54656F"/>
<path d="M40.9203 27.8459C40.5597 27.5667 40.1309 27.3644 39.7216 27.3067H39.5364C39.439 27.3067 39.2928 27.3452 39.2148 27.3837C39.2148 27.3837 39.0589 27.4704 38.903 27.5378C38.4254 27.74 37.8797 27.8556 37.3047 27.8556C36.7297 27.8556 36.1742 27.74 35.6966 27.5378C35.5407 27.4704 35.3847 27.3837 35.3847 27.3837C35.3068 27.3356 35.1606 27.3067 35.0631 27.3067H34.8682C33.9911 27.4319 33.0555 28.2022 32.8119 29.0496C32.8119 29.0496 32.539 29.5889 32.5 30.6867C32.5 30.783 32.6462 31.0237 32.8216 31.12C32.8216 31.12 34.2542 32.0348 37.2949 32.0348C37.3436 32.0348 37.3924 32.0348 37.4411 32.0348C37.4314 31.9096 37.4216 31.7941 37.4216 31.6689C37.4314 29.6756 38.9614 28.0481 40.9203 27.8459ZM37.3047 26.883C35.7843 26.883 34.5564 25.6696 34.5564 24.1674C34.5564 22.6652 35.7843 21.4519 37.3047 21.4519C38.825 21.4519 40.053 22.6652 40.053 24.1674C40.053 25.6696 38.825 26.883 37.3047 26.883Z" fill="#54656F"/>
</g>
</g>
<path d="M17.4267 54.312C17.3947 54.096 17.3227 53.9 17.2107 53.724C17.0987 53.54 16.9587 53.38 16.7907 53.244C16.6227 53.108 16.4307 53.004 16.2147 52.932C16.0067 52.852 15.7867 52.812 15.5547 52.812C15.1307 52.812 14.7707 52.896 14.4747 53.064C14.1787 53.224 13.9387 53.444 13.7547 53.724C13.5707 53.996 13.4347 54.308 13.3467 54.66C13.2667 55.012 13.2267 55.376 13.2267 55.752C13.2267 56.112 13.2667 56.464 13.3467 56.808C13.4347 57.144 13.5707 57.448 13.7547 57.72C13.9387 57.992 14.1787 58.212 14.4747 58.38C14.7707 58.54 15.1307 58.62 15.5547 58.62C16.1307 58.62 16.5787 58.444 16.8987 58.092C17.2267 57.74 17.4267 57.276 17.4987 56.7H19.3227C19.2747 57.236 19.1507 57.72 18.9507 58.152C18.7507 58.584 18.4867 58.952 18.1587 59.256C17.8307 59.56 17.4467 59.792 17.0067 59.952C16.5667 60.112 16.0827 60.192 15.5547 60.192C14.8987 60.192 14.3067 60.08 13.7787 59.856C13.2587 59.624 12.8187 59.308 12.4587 58.908C12.0987 58.508 11.8227 58.04 11.6307 57.504C11.4387 56.96 11.3427 56.376 11.3427 55.752C11.3427 55.112 11.4387 54.52 11.6307 53.976C11.8227 53.424 12.0987 52.944 12.4587 52.536C12.8187 52.128 13.2587 51.808 13.7787 51.576C14.3067 51.344 14.8987 51.228 15.5547 51.228C16.0267 51.228 16.4707 51.296 16.8867 51.432C17.3107 51.568 17.6867 51.768 18.0147 52.032C18.3507 52.288 18.6267 52.608 18.8427 52.992C19.0587 53.376 19.1947 53.816 19.2507 54.312H17.4267ZM22.4413 56.904C22.4413 57.152 22.4653 57.396 22.5133 57.636C22.5613 57.868 22.6413 58.08 22.7533 58.272C22.8733 58.456 23.0293 58.604 23.2213 58.716C23.4133 58.828 23.6533 58.884 23.9413 58.884C24.2293 58.884 24.4693 58.828 24.6613 58.716C24.8613 58.604 25.0173 58.456 25.1293 58.272C25.2493 58.08 25.3333 57.868 25.3813 57.636C25.4293 57.396 25.4533 57.152 25.4533 56.904C25.4533 56.656 25.4293 56.412 25.3813 56.172C25.3333 55.932 25.2493 55.72 25.1293 55.536C25.0173 55.352 24.8613 55.204 24.6613 55.092C24.4693 54.972 24.2293 54.912 23.9413 54.912C23.6533 54.912 23.4133 54.972 23.2213 55.092C23.0293 55.204 22.8733 55.352 22.7533 55.536C22.6413 55.72 22.5613 55.932 22.5133 56.172C22.4653 56.412 22.4413 56.656 22.4413 56.904ZM20.7373 56.904C20.7373 56.408 20.8133 55.96 20.9653 55.56C21.1173 55.152 21.3333 54.808 21.6133 54.528C21.8933 54.24 22.2293 54.02 22.6213 53.868C23.0133 53.708 23.4533 53.628 23.9413 53.628C24.4293 53.628 24.8693 53.708 25.2613 53.868C25.6613 54.02 26.0013 54.24 26.2812 54.528C26.5613 54.808 26.7773 55.152 26.9293 55.56C27.0813 55.96 27.1573 56.408 27.1573 56.904C27.1573 57.4 27.0813 57.848 26.9293 58.248C26.7773 58.648 26.5613 58.992 26.2812 59.28C26.0013 59.56 25.6613 59.776 25.2613 59.928C24.8693 60.08 24.4293 60.156 23.9413 60.156C23.4533 60.156 23.0133 60.08 22.6213 59.928C22.2293 59.776 21.8933 59.56 21.6133 59.28C21.3333 58.992 21.1173 58.648 20.9653 58.248C20.8133 57.848 20.7373 57.4 20.7373 56.904ZM28.8132 53.796H30.4212V54.636H30.4452C30.6692 54.316 30.9372 54.068 31.2492 53.892C31.5692 53.716 31.9332 53.628 32.3412 53.628C32.7332 53.628 33.0892 53.704 33.4092 53.856C33.7372 54.008 33.9852 54.276 34.1532 54.66C34.3372 54.388 34.5852 54.148 34.8972 53.94C35.2172 53.732 35.5932 53.628 36.0252 53.628C36.3532 53.628 36.6572 53.668 36.9372 53.748C37.2172 53.828 37.4572 53.956 37.6572 54.132C37.8572 54.308 38.0132 54.54 38.1252 54.828C38.2372 55.108 38.2932 55.448 38.2932 55.848V60H36.5892V56.484C36.5892 56.276 36.5812 56.08 36.5652 55.896C36.5492 55.712 36.5052 55.552 36.4332 55.416C36.3612 55.28 36.2532 55.172 36.1092 55.092C35.9732 55.012 35.7852 54.972 35.5452 54.972C35.3052 54.972 35.1092 55.02 34.9572 55.116C34.8132 55.204 34.6972 55.324 34.6092 55.476C34.5292 55.62 34.4732 55.788 34.4412 55.98C34.4172 56.164 34.4052 56.352 34.4052 56.544V60H32.7012V56.52C32.7012 56.336 32.6972 56.156 32.6892 55.98C32.6812 55.796 32.6452 55.628 32.5812 55.476C32.5252 55.324 32.4252 55.204 32.2812 55.116C32.1452 55.02 31.9412 54.972 31.6692 54.972C31.5892 54.972 31.4812 54.992 31.3452 55.032C31.2172 55.064 31.0892 55.132 30.9612 55.236C30.8412 55.332 30.7372 55.476 30.6492 55.668C30.5612 55.852 30.5172 56.096 30.5172 56.4V60H28.8132V53.796ZM40.1882 53.796H41.7962V54.636H41.8202C42.0442 54.316 42.3122 54.068 42.6242 53.892C42.9442 53.716 43.3082 53.628 43.7162 53.628C44.1082 53.628 44.4642 53.704 44.7842 53.856C45.1122 54.008 45.3602 54.276 45.5282 54.66C45.7122 54.388 45.9602 54.148 46.2722 53.94C46.5922 53.732 46.9682 53.628 47.4002 53.628C47.7282 53.628 48.0322 53.668 48.3122 53.748C48.5922 53.828 48.8322 53.956 49.0322 54.132C49.2322 54.308 49.3882 54.54 49.5002 54.828C49.6122 55.108 49.6682 55.448 49.6682 55.848V60H47.9642V56.484C47.9642 56.276 47.9562 56.08 47.9402 55.896C47.9242 55.712 47.8802 55.552 47.8082 55.416C47.7362 55.28 47.6282 55.172 47.4842 55.092C47.3482 55.012 47.1602 54.972 46.9202 54.972C46.6802 54.972 46.4842 55.02 46.3322 55.116C46.1882 55.204 46.0722 55.324 45.9842 55.476C45.9042 55.62 45.8482 55.788 45.8162 55.98C45.7922 56.164 45.7802 56.352 45.7802 56.544V60H44.0762V56.52C44.0762 56.336 44.0722 56.156 44.0642 55.98C44.0562 55.796 44.0202 55.628 43.9562 55.476C43.9002 55.324 43.8002 55.204 43.6562 55.116C43.5202 55.02 43.3162 54.972 43.0442 54.972C42.9642 54.972 42.8562 54.992 42.7202 55.032C42.5922 55.064 42.4642 55.132 42.3362 55.236C42.2162 55.332 42.1122 55.476 42.0242 55.668C41.9362 55.852 41.8922 56.096 41.8922 56.4V60H40.1882V53.796ZM57.3352 60H55.7152V59.136H55.6792C55.4632 59.496 55.1832 59.756 54.8392 59.916C54.4952 60.076 54.1432 60.156 53.7832 60.156C53.3272 60.156 52.9512 60.096 52.6552 59.976C52.3672 59.856 52.1392 59.688 51.9712 59.472C51.8032 59.248 51.6832 58.98 51.6112 58.668C51.5472 58.348 51.5152 57.996 51.5152 57.612V53.796H53.2192V57.3C53.2192 57.812 53.2992 58.196 53.4592 58.452C53.6192 58.7 53.9032 58.824 54.3112 58.824C54.7752 58.824 55.1112 58.688 55.3192 58.416C55.5272 58.136 55.6312 57.68 55.6312 57.048V53.796H57.3352V60ZM59.1285 53.796H60.7485V54.66H60.7845C61.0005 54.3 61.2805 54.04 61.6245 53.88C61.9685 53.712 62.3205 53.628 62.6805 53.628C63.1365 53.628 63.5085 53.692 63.7965 53.82C64.0925 53.94 64.3245 54.112 64.4925 54.336C64.6605 54.552 64.7765 54.82 64.8405 55.14C64.9125 55.452 64.9485 55.8 64.9485 56.184V60H63.2445V56.496C63.2445 55.984 63.1645 55.604 63.0045 55.356C62.8445 55.1 62.5605 54.972 62.1525 54.972C61.6885 54.972 61.3525 55.112 61.1445 55.392C60.9365 55.664 60.8325 56.116 60.8325 56.748V60H59.1285V53.796ZM66.8138 58.152H68.6978V60H66.8138V58.152ZM70.6536 58.152H72.5376V60H70.6536V58.152ZM74.4934 58.152H76.3774V60H74.4934V58.152Z" fill="#667781"/>
<defs>
<clipPath id="clip0_3_1562">
<rect x="12" y="12" width="64" height="32" rx="16" fill="white"/>
</clipPath>
<clipPath id="clip1_3_1562">
<rect width="23" height="13" fill="white" transform="translate(32.5 21.5)"/>
</clipPath>
</defs>
</svg>
